<?xml version="1.0" encoding="UTF-8"?>
<svg version="1.1" xmlns="http://www.w3.org/2000/svg" width="160" height="160">
<path d="M0 0 C19.8 0 39.6 0 60 0 C60 3.3 60 6.6 60 10 C66.6 10 73.2 10 80 10 C80 13.3 80 16.6 80 20 C83.3 20 86.6 20 90 20 C90 23.3 90 26.6 90 30 C93.3 30 96.6 30 100 30 C100 33.3 100 36.6 100 40 C103.3 40 106.6 40 110 40 C110 46.6 110 53.2 110 60 C106.7 60 103.4 60 100 60 C100 63.3 100 66.6 100 70 C93.4 70 86.8 70 80 70 C80 73.3 80 76.6 80 80 C83.3 80 86.6 80 90 80 C90 83.3 90 86.6 90 90 C93.3 90 96.6 90 100 90 C100 99.9 100 109.8 100 120 C96.7 120 93.4 120 90 120 C90 123.3 90 126.6 90 130 C86.7 130 83.4 130 80 130 C80 133.3 80 136.6 80 140 C76.7 140 73.4 140 70 140 C70 143.3 70 146.6 70 150 C66.7 150 63.4 150 60 150 C60 153.3 60 156.6 60 160 C40.2 160 20.4 160 0 160 C0 156.7 0 153.4 0 150 C-3.3 150 -6.6 150 -10 150 C-10 146.7 -10 143.4 -10 140 C-13.3 140 -16.6 140 -20 140 C-20 136.7 -20 133.4 -20 130 C-23.3 130 -26.6 130 -30 130 C-30 126.7 -30 123.4 -30 120 C-33.3 120 -36.6 120 -40 120 C-40 110.1 -40 100.2 -40 90 C-36.7 90 -33.4 90 -30 90 C-30 86.7 -30 83.4 -30 80 C-26.7 80 -23.4 80 -20 80 C-20 76.7 -20 73.4 -20 70 C-26.6 70 -33.2 70 -40 70 C-40 66.7 -40 63.4 -40 60 C-43.3 60 -46.6 60 -50 60 C-50 53.4 -50 46.8 -50 40 C-46.7 40 -43.4 40 -40 40 C-40 36.7 -40 33.4 -40 30 C-36.7 30 -33.4 30 -30 30 C-30 26.7 -30 23.4 -30 20 C-26.7 20 -23.4 20 -20 20 C-20 16.7 -20 13.4 -20 10 C-13.4 10 -6.8 10 0 10 C0 6.7 0 3.4 0 0 Z " fill="#F73910" transform="translate(50,0)"/>
<path d="M0 0 C3.3 0 6.6 0 10 0 C10 3.3 10 6.6 10 10 C36.4 10 62.8 10 90 10 C90 6.7 90 3.4 90 0 C93.3 0 96.6 0 100 0 C100 3.3 100 6.6 100 10 C103.3 10 106.6 10 110 10 C110 13.3 110 16.6 110 20 C113.3 20 116.6 20 120 20 C120 29.9 120 39.8 120 50 C116.7 50 113.4 50 110 50 C110 53.3 110 56.6 110 60 C106.7 60 103.4 60 100 60 C100 63.3 100 66.6 100 70 C96.7 70 93.4 70 90 70 C90 73.3 90 76.6 90 80 C86.7 80 83.4 80 80 80 C80 83.3 80 86.6 80 90 C60.2 90 40.4 90 20 90 C20 86.7 20 83.4 20 80 C16.7 80 13.4 80 10 80 C10 76.7 10 73.4 10 70 C6.7 70 3.4 70 0 70 C0 66.7 0 63.4 0 60 C-3.3 60 -6.6 60 -10 60 C-10 56.7 -10 53.4 -10 50 C-13.3 50 -16.6 50 -20 50 C-20 40.1 -20 30.2 -20 20 C-16.7 20 -13.4 20 -10 20 C-10 16.7 -10 13.4 -10 10 C-6.7 10 -3.4 10 0 10 C0 6.7 0 3.4 0 0 Z " fill="#1F1F1F" transform="translate(30,70)"/>
<path d="M0 0 C9.9 0 19.8 0 30 0 C30 3.3 30 6.6 30 10 C33.3 10 36.6 10 40 10 C40 13.3 40 16.6 40 20 C43.3 20 46.6 20 50 20 C50 23.3 50 26.6 50 30 C69.8 30 89.6 30 110 30 C110 26.7 110 23.4 110 20 C113.3 20 116.6 20 120 20 C120 16.7 120 13.4 120 10 C123.3 10 126.6 10 130 10 C130 6.7 130 3.4 130 0 C139.9 0 149.8 0 160 0 C160 6.6 160 13.2 160 20 C156.7 20 153.4 20 150 20 C150 23.3 150 26.6 150 30 C140.1 30 130.2 30 120 30 C120 33.3 120 36.6 120 40 C93.6 40 67.2 40 40 40 C40 36.7 40 33.4 40 30 C30.1 30 20.2 30 10 30 C10 26.7 10 23.4 10 20 C6.7 20 3.4 20 0 20 C0 13.4 0 6.8 0 0 Z " fill="#FFD9B2" transform="translate(0,40)"/>
<path d="M0 0 C13.2 0 26.4 0 40 0 C40 9.9 40 19.8 40 30 C26.8 30 13.6 30 0 30 C0 20.1 0 10.2 0 0 Z " fill="#FFD9B2" transform="translate(110,90)"/>
<path d="M0 0 C13.2 0 26.4 0 40 0 C40 9.9 40 19.8 40 30 C26.8 30 13.6 30 0 30 C0 20.1 0 10.2 0 0 Z " fill="#FFD9B2" transform="translate(10,90)"/>
<path d="M0 0 C6.6 0 13.2 0 20 0 C20 3.3 20 6.6 20 10 C33.2 10 46.4 10 60 10 C60 6.7 60 3.4 60 0 C66.6 0 73.2 0 80 0 C80 3.3 80 6.6 80 10 C76.7 10 73.4 10 70 10 C70 13.3 70 16.6 70 20 C50.2 20 30.4 20 10 20 C10 16.7 10 13.4 10 10 C6.7 10 3.4 10 0 10 C0 6.7 0 3.4 0 0 Z " fill="#1F1F1F" transform="translate(40,50)"/>
<path d="M0 0 C13.2 0 26.4 0 40 0 C40 6.6 40 13.2 40 20 C26.8 20 13.6 20 0 20 C0 13.4 0 6.8 0 0 Z " fill="#F73910" transform="translate(60,90)"/>
<path d="M0 0 C6.6 0 13.2 0 20 0 C20 6.6 20 13.2 20 20 C23.3 20 26.6 20 30 20 C30 23.3 30 26.6 30 30 C16.8 30 3.6 30 -10 30 C-10 26.7 -10 23.4 -10 20 C-6.7 20 -3.4 20 0 20 C0 13.4 0 6.8 0 0 Z " fill="#FFD9B2" transform="translate(70,30)"/>
<path d="M0 0 C19.8 0 39.6 0 60 0 C60 3.3 60 6.6 60 10 C40.2 10 20.4 10 0 10 C0 6.7 0 3.4 0 0 Z " fill="#1F1F1F" transform="translate(50,150)"/>
<path d="M0 0 C19.8 0 39.6 0 60 0 C60 3.3 60 6.6 60 10 C40.2 10 20.4 10 0 10 C0 6.7 0 3.4 0 0 Z " fill="#F73910" transform="translate(50,140)"/>
<path d="M0 0 C19.8 0 39.6 0 60 0 C60 3.3 60 6.6 60 10 C40.2 10 20.4 10 0 10 C0 6.7 0 3.4 0 0 Z " fill="#1F1F1F" transform="translate(50,0)"/>
<path d="M0 0 C3.3 0 6.6 0 10 0 C10 3.3 10 6.6 10 10 C13.3 10 16.6 10 20 10 C20 13.3 20 16.6 20 20 C13.4 20 6.8 20 0 20 C0 23.3 0 26.6 0 30 C-3.3 30 -6.6 30 -10 30 C-10 23.4 -10 16.8 -10 10 C-6.7 10 -3.4 10 0 10 C0 6.7 0 3.4 0 0 Z " fill="#1F1F1F" transform="translate(130,20)"/>
<path d="M0 0 C3.3 0 6.6 0 10 0 C10 3.3 10 6.6 10 10 C13.3 10 16.6 10 20 10 C20 16.6 20 23.2 20 30 C16.7 30 13.4 30 10 30 C10 26.7 10 23.4 10 20 C3.4 20 -3.2 20 -10 20 C-10 16.7 -10 13.4 -10 10 C-6.7 10 -3.4 10 0 10 C0 6.7 0 3.4 0 0 Z " fill="#1F1F1F" transform="translate(20,20)"/>
<path d="M0 0 C6.6 0 13.2 0 20 0 C20 6.6 20 13.2 20 20 C13.4 20 6.8 20 0 20 C0 13.4 0 6.8 0 0 Z " fill="#FFD9B2" transform="translate(100,30)"/>
<path d="M0 0 C6.6 0 13.2 0 20 0 C20 6.6 20 13.2 20 20 C13.4 20 6.8 20 0 20 C0 13.4 0 6.8 0 0 Z " fill="#FFD9B2" transform="translate(40,30)"/>
<path d="M0 0 C3.3 0 6.6 0 10 0 C10 9.9 10 19.8 10 30 C6.7 30 3.4 30 0 30 C0 20.1 0 10.2 0 0 Z " fill="#1F1F1F" transform="translate(140,90)"/>
<path d="M0 0 C3.3 0 6.6 0 10 0 C10 9.9 10 19.8 10 30 C6.7 30 3.4 30 0 30 C0 20.1 0 10.2 0 0 Z " fill="#1F1F1F" transform="translate(10,90)"/>
<path d="M0 0 C6.6 0 13.2 0 20 0 C20 3.3 20 6.6 20 10 C13.4 10 6.8 10 0 10 C0 6.7 0 3.4 0 0 Z " fill="#1F1F1F" transform="translate(130,60)"/>
<path d="M0 0 C6.6 0 13.2 0 20 0 C20 3.3 20 6.6 20 10 C13.4 10 6.8 10 0 10 C0 6.7 0 3.4 0 0 Z " fill="#1F1F1F" transform="translate(10,60)"/>
<path d="M0 0 C3.3 0 6.6 0 10 0 C10 6.6 10 13.2 10 20 C6.7 20 3.4 20 0 20 C0 13.4 0 6.8 0 0 Z " fill="#1F1F1F" transform="translate(150,40)"/>
<path d="M0 0 C3.3 0 6.6 0 10 0 C10 6.6 10 13.2 10 20 C6.7 20 3.4 20 0 20 C0 13.4 0 6.8 0 0 Z " fill="#1F1F1F" transform="translate(0,40)"/>
<path d="M0 0 C3.3 0 6.6 0 10 0 C10 6.6 10 13.2 10 20 C6.7 20 3.4 20 0 20 C0 13.4 0 6.8 0 0 Z " fill="#1F1F1F" transform="translate(90,30)"/>
<path d="M0 0 C3.3 0 6.6 0 10 0 C10 6.6 10 13.2 10 20 C6.7 20 3.4 20 0 20 C0 13.4 0 6.8 0 0 Z " fill="#1F1F1F" transform="translate(60,30)"/>
<path d="M0 0 C6.6 0 13.2 0 20 0 C20 3.3 20 6.6 20 10 C13.4 10 6.8 10 0 10 C0 6.7 0 3.4 0 0 Z " fill="#1F1F1F" transform="translate(110,10)"/>
<path d="M0 0 C6.6 0 13.2 0 20 0 C20 3.3 20 6.6 20 10 C13.4 10 6.8 10 0 10 C0 6.7 0 3.4 0 0 Z " fill="#1F1F1F" transform="translate(30,10)"/>
<path d="M0 0 C3.3 0 6.6 0 10 0 C10 3.3 10 6.6 10 10 C6.7 10 3.4 10 0 10 C0 6.7 0 3.4 0 0 Z " fill="#FFD9B2" transform="translate(90,120)"/>
<path d="M0 0 C3.3 0 6.6 0 10 0 C10 3.3 10 6.6 10 10 C6.7 10 3.4 10 0 10 C0 6.7 0 3.4 0 0 Z " fill="#FFD9B2" transform="translate(60,120)"/>
</svg>
